<svg xmlns="http://www.w3.org/2000/svg" height="39.513" viewBox="0 0 263.6105 39.512501" width="263.61"><g transform="matrix(1.25 0 0 -1.25 -473.39 966.5)"><g><path d="m401.17 766.12-4.93 4.917h-10.675l-4.955-4.958v-17.553l4.955-4.96h10.675l4.93 4.905v17.649zm-15.489-2.169 1.995 1.994h6.464l1.994-1.994v-13.292l-1.994-1.995h-6.464l-1.995 1.995v13.292z" fill="#ba0c2f"/><path d="m7.9863 1.0723l-7.0586 7.0547 0.00003 23.359 7.0098 7.098h14.598l7.052-7.064v-23.395l-7.006-7.0527h-14.596zm14.305 0.6367l6.598 6.6152 0.019 22.922-6.662 6.664h-13.974l-6.7095-6.713v-22.785l6.709-6.7011 14.02-0.0019zm-10.633 8.316l-1.9529 1.952v15.796l1.9099 1.911h7.272l1.892-1.895v-15.783l-1.98-1.981h-7.141zm68.399 0.368c-3.637 0-5.245 2.115-5.245 6.031 0 3.932 1.591 6.099 5.227 6.099s5.242-2.115 5.242-6.031c0-3.932-1.589-6.099-5.224-6.099zm42.053 0c-2.68 0-3.95 1.242-3.95 3.287 0 2.516 1.94 3.041 3.77 3.652 1.16 0.385 2.1 0.578 2.1 1.924 0 1.485-1.22 1.939-2.59 1.939-1.33 0-2.08-0.261-2.08-0.261l-0.22-1.61h-1v2.5s1.63 0.699 3.65 0.699c2.9 0 4.34-1.294 4.34-3.496 0-4.667-5.87-2.743-5.87-5.662 0-1.346 1.04-1.695 2.06-1.695 1.01 0 2.06 0.226 2.06 0.226l0.23 1.504h0.99v-2.343c-0.99-0.384-2.27-0.664-3.49-0.664zm-83.075 0.211v2.673h0.944l0.21-1.451h2.657v9.387l-1.416 0.209v0.892h5.033v-0.892l-1.416-0.209v-9.387h2.656l0.211 1.451h0.943v-2.673h-9.822zm128.64 0v0.89l1.42 0.209v5.82c0 1.294-0.11 2.782 0.89 3.778 0.77 0.769 1.99 1.222 3.63 1.222 1.66 0 2.78-0.332 3.46-1.013 0.95-0.945 1.07-1.82 1.07-3.828v-5.979l1.42-0.209v-0.89h-4.27v0.89l1.42 0.209v6.854c0 0.89-0.23 1.571-0.65 2.007-0.47 0.508-1.19 0.684-2.06 0.684-1.64 0-2.71-0.769-2.71-2.691v-6.854l1.42-0.209v-0.89h-5.04zm-155.74 0.06h6.627l1.58 1.58v15.277l-1.522 1.522h-6.746l-1.498-1.496v-15.324l1.559-1.559zm68.123 1.006c1.94 0 2.9 1.572 2.9 4.807 0 3.215-0.994 4.771-2.936 4.771-1.94 0-2.902-1.574-2.902-4.809 0-3.215 0.998-4.769 2.938-4.769zm27.733 1.309c-3.09 0-4.45 1.698-4.45 4.738 0 3.041 1.34 4.771 4.44 4.771 3.09 0 4.45-1.694 4.45-4.736 0-3.04-1.34-4.773-4.44-4.773zm124.25 0.001c-2.25 0-3.39 0.995-3.39 2.639 0 2.29 2.17 2.534 3.86 3.111 0.58 0.193 0.97 0.438 0.97 1.137 0 0.996-0.86 1.363-1.98 1.363-1.03 0-1.7-0.191-1.7-0.191l-0.22-1.504h-0.95v2.377s1.44 0.576 3.15 0.576c2.43 0 3.72-1.014 3.72-2.797 0-3.635-4.84-2.271-4.84-4.316 0-0.891 0.75-1.189 1.61-1.189s1.63 0.175 1.63 0.175l0.22 1.432h0.95v-2.272c-0.93-0.332-2-0.541-3.03-0.541zm-182.48 0.157v0.84l1.363 0.209v7.08l-1.363 0.209v0.839h4.771v-0.839l-1.31-0.209v-3.2h3.496v3.2l-1.313 0.209v0.839h4.772v-0.839l-1.362-0.209v-7.08l1.362-0.209v-0.84h-4.772v0.84l1.313 0.209v2.761h-3.496v-2.761l1.31-0.209v-0.84h-4.771zm11.431 0v0.84l1.364 0.209v7.08l-1.364 0.209v0.839h7.916v-2.429h-0.89l-0.211 1.31h-3.354v-3.164h2.098l0.207 1.172h0.787v-3.392h-0.787l-0.207 1.171h-2.098v-2.726h3.354l0.211 1.31h0.89v-2.429h-7.916zm25.239 0v0.84l1.361 0.209v7.08l-1.361 0.209v0.839h4.771v-0.839l-1.312-0.209v-3.2h3.496v3.2l-1.311 0.209v0.839h4.772v-0.839l-1.364-0.209v-7.08l1.364-0.209v-0.84h-4.772v0.84l1.311 0.209v2.761h-3.496v-2.761l1.312-0.209v-0.84h-4.771zm11.552 0v0.84l1.364 0.209v7.08l-1.364 0.209v0.839h4.821v-0.839l-1.36-0.209v-7.08l1.36-0.209v-0.84h-4.821zm29.171 0v2.535h0.89l0.21-1.416h2.03v7.008l-1.37 0.211v0.839h4.83v-0.839l-1.36-0.211v-7.008h2.02l0.21 1.416h0.89v-2.535h-8.35zm12.25 0l-3.15 8.129-1.31 0.209v0.839h4.01v-0.839l-1.31-0.209 0.64-1.661h3.5l0.64 1.661-1.31 0.209v0.839h4.76v-0.839l-1.31-0.209-3.15-8.129h-2.01zm5.91 0v2.535h0.89l0.21-1.416h2.03v7.008l-1.37 0.211v0.839h4.83v-0.839l-1.37-0.211v-7.008h2.03l0.21 1.416h0.89v-2.535h-8.35zm9.16 0v0.84l1.36 0.209v7.08l-1.36 0.209v0.839h7.91v-2.429h-0.89l-0.21 1.31h-3.35v-3.164h2.09l0.21 1.172h0.79v-3.392h-0.79l-0.21 1.171h-2.09v-2.726h3.35l0.21 1.31h0.89v-2.429h-7.91zm25.85 0v0.84l1.36 0.209v7.08l-1.36 0.209v0.839h4.1v-0.839l-1.36-0.209v-5.508l4.67 6.556h1.64v-8.128l1.36-0.209v-0.84h-4.1v0.84l1.36 0.209v5.209l-4.48-6.258h-3.19zm11.5 0v0.84l1.36 0.209v7.08l-1.36 0.209v0.839h4.82v-0.839l-1.36-0.209v-7.08l1.36-0.209v-0.84h-4.82zm5.61 0v0.84l1.31 0.209 3.06 8.128h2.02l3.06-8.128 1.31-0.209v-0.84h-4v0.84l1.31 0.209-2.31 6.293-2.32-6.293 1.31-0.209v-0.84h-4.75zm11.48 0v0.84l1.36 0.209v7.08l-1.36 0.209v0.839h7.92v-2.429h-0.89l-0.21 1.31h-3.36v-3.164h2.1l0.21 1.172h0.78v-3.392h-0.78l-0.21 1.171h-2.1v-2.726h3.36l0.21 1.31h0.89v-2.429h-7.92zm9.33 0v0.84l1.37 0.211v7.076l-1.37 0.211v0.839h4.77v-0.839l-1.31-0.211v-3.092h0.16c1.22 0 1.57 0.646 2.15 2.045l0.86 2.097h2.97v-0.839l-1.31-0.211c-0.39-0.908-1.05-2.796-1.82-3.371 0.96-0.299 1.66-1.26 1.66-2.327 0-0.681-0.26-1.275-0.73-1.712-0.72-0.665-1.82-0.717-2.77-0.717h-4.63zm18.69 0v0.84l1.36 0.209v7.08l-1.36 0.209v0.839h4.82v-0.839l-1.36-0.209v-7.08l1.36-0.209v-0.84h-4.82zm5.82 0v2.535h0.89l0.21-1.416h2.03v7.008l-1.37 0.211v0.839h4.83v-0.839l-1.37-0.211v-7.008h2.03l0.21 1.416h0.89v-2.535h-8.35zm9.21 0v0.84l1.31 0.209 2.71 4.142v2.938l-1.37 0.209v0.839h4.83v-0.839l-1.36-0.209v-2.938l2.67-4.142 1.31-0.209v-0.84h-4.05v0.84l1.25 0.209-1.87 2.972-1.88-2.972 1.31-0.209v-0.84h-4.86zm-143.97 1.049c1.47 0 2.24 1.083 2.24 3.566 0 2.465-0.8 3.531-2.27 3.531s-2.22-1.084-2.22-3.566c0-2.464 0.78-3.531 2.25-3.531zm113.71 0.017h0.62c0.47 0 1.22-0.034 1.57 0.332 0.29 0.315 0.38 0.7 0.38 1.102s-0.07 0.77-0.35 1.084c-0.43 0.488-1.26 0.418-1.85 0.418h-0.37v-2.936zm-81.67 0.699l1.33 3.637h-2.66l1.33-3.637zm-100.77 13.772v0.654h223.48v-0.654h-223.48z" transform="matrix(.8 0 0 -.8 378.71 773.2)" fill="#666"/></g></g></svg>
